<svg xmlns="http://www.w3.org/2000/svg" viewBox="0 0 154.86 145.36"><defs><style>.a{fill:#fff;}.b{fill:#0072bb;}.c{fill:#26a9df;}.d{fill:#044b78;}</style></defs><title>blue_goad</title><path class="a" d="M14.03 132.72h9.27a6.45 6.45 0 0 0 0 .68c0 .77.06 1.28.06 1.53a10.32 10.32 0 0 1-2.83 7.71c-1.9 1.81-4.56 2.72-8 2.72a14.42 14.42 0 0 1-5.13-.85 11.1 11.1 0 0 1-4-2.55 11.76 11.76 0 0 1-2.55-4 13.44 13.44 0 0 1-.88-4.9 13 13 0 0 1 .88-4.9 11.47 11.47 0 0 1 2.69-4 11.8 11.8 0 0 1 4-2.58 14.22 14.22 0 0 1 4.93-.88 11.58 11.58 0 0 1 5 1 10.94 10.94 0 0 1 3.91 3.09l-2.78 2.1a8 8 0 0 0-2.69-2 7.89 7.89 0 0 0-3.32-.68 8.44 8.44 0 0 0-6.24 2.44 8.7 8.7 0 0 0-2.41 6.38 8.79 8.79 0 0 0 2.41 6.43 8.28 8.28 0 0 0 6.26 2.49 7.86 7.86 0 0 0 5.13-1.53 5 5 0 0 0 1.9-4.14v-.34h-5.61v-3.23zm52.75.34a8.65 8.65 0 0 0-.65-3.4 8.89 8.89 0 0 0-1.84-2.83 8.42 8.42 0 0 0-6.07-2.58 8.72 8.72 0 0 0-3.29.65 9 9 0 0 0-4.65 4.76 9.17 9.17 0 0 0-.62 3.4 9 9 0 0 0 .62 3.37 8.81 8.81 0 0 0 1.87 2.83 8.09 8.09 0 0 0 2.78 1.9 8.51 8.51 0 0 0 3.29.65 8.37 8.37 0 0 0 3.26-.65 8.48 8.48 0 0 0 2.81-1.9 9 9 0 0 0 1.84-2.83 8.38 8.38 0 0 0 .66-3.37zm4 0a12.16 12.16 0 0 1-.94 4.73 12.64 12.64 0 0 1-2.75 4 12.4 12.4 0 0 1-4.08 2.66 12.54 12.54 0 0 1-4.79.94 12.69 12.69 0 0 1-4.82-.94 12.55 12.55 0 0 1-4.08-2.66 12 12 0 0 1-3.66-8.7 12.3 12.3 0 0 1 .94-4.76 12.75 12.75 0 0 1 16.44-6.63 12.2 12.2 0 0 1 4.05 2.64 13.21 13.21 0 0 1 2.75 4 12.16 12.16 0 0 1 .94 4.72zm28.06 2.47h6.55l-2.41-5.36c-.14-.34-.28-.74-.45-1.19s-.28-.94-.43-1.47q-.21.77-.43 1.45c-.14.43-.28.85-.43 1.22zm10.54 9.21l-2.66-6h-9.3l-2.72 6h-4l11.37-24.41 11.37 24.41h-4zm29.34-3.43h3.23a15.45 15.45 0 0 0 4-.37 5.56 5.56 0 0 0 2.3-1.19 7.09 7.09 0 0 0 2-2.83 12.15 12.15 0 0 0 0-7.85 7.09 7.09 0 0 0-2-2.83 5.56 5.56 0 0 0-2.38-1.19 17.91 17.91 0 0 0-4.34-.37h-2.8v16.64zm-3.8 3.43v-23.47h5.13a33.35 33.35 0 0 1 7.09.51 9.44 9.44 0 0 1 3.57 1.67 9.78 9.78 0 0 1 3.09 4 13.92 13.92 0 0 1 1 5.58 13.64 13.64 0 0 1-1 5.53 9.78 9.78 0 0 1-3.09 4 9.53 9.53 0 0 1-3.49 1.7 29 29 0 0 1-6.12.48h-6.17z"/><path class="b" d="M136.6 97.91L80.08 0H26.14l62.33 97.94 48.13-.03"/><path class="c" d="M66.13 97.94l35.38-60.83 35.09 60.8zm18.88-89.4L26.13.01h53.94L85 8.54 39.76 86.1l-.06-.06-21.47 11.87H49.36l48.42-67.24z"/><path class="d" d="M56.13 47.11L85.02 8.53l-25.57 43.8zM39.72 86.03l1.64-2.69 8 14.6zm34-11.23l3.06 4.79 24.69-42.49z"/></svg>